# Blender 3.6.4
# www.blender.org
mtllib knife.mtl
o Cube
v -0.100000 0.000000 0.100000
v -0.100000 1.000000 0.100000
v -0.100000 0.000000 -0.100000
v -0.100000 1.000000 -0.100000
v 0.100000 0.000000 0.100000
v 0.100000 1.000000 0.100000
v 0.100000 0.000000 -0.100000
v 0.100000 1.000000 -0.100000
vn -1.0000 -0.0000 -0.0000
vn -0.0000 -0.0000 -1.0000
vn 1.0000 -0.0000 -0.0000
vn -0.0000 -0.0000 1.0000
vn -0.0000 -1.0000 -0.0000
vn -0.0000 1.0000 -0.0000
vt 0.500000 0.000000
vt 0.750000 0.000000
vt 0.750000 0.250000
vt 0.500000 0.250000
vt 0.750000 0.500000
vt 0.500000 0.500000
vt 0.750000 0.750000
vt 0.500000 0.750000
vt 0.750000 1.000000
vt 0.500000 1.000000
vt 0.250000 0.500000
vt 0.250000 0.750000
vt 1.000000 0.500000
vt 1.000000 0.750000
s 0
usemtl Material
f 1/1/1 2/2/1 4/3/1 3/4/1
f 3/4/2 4/3/2 8/5/2 7/6/2
f 7/6/3 8/5/3 6/7/3 5/8/3
f 5/8/4 6/7/4 2/9/4 1/10/4
f 3/11/5 7/6/5 5/8/5 1/12/5
f 8/5/6 4/13/6 2/14/6 6/7/6
o Cube.001
v -0.009419 1.000000 0.389597
v -0.000213 3.500000 0.000832
v -0.009419 1.000000 -0.389597
v -0.000213 3.500000 -0.000832
v 0.100000 1.000000 0.000000
v 0.000213 3.500000 0.000832
v 0.000213 3.500000 -0.000832
v -0.099419 1.000000 0.000000
vn -0.9992 0.0396 -0.0000
vn 0.9618 0.0385 -0.2712
vn 0.9992 0.0399 -0.0000
vn 0.9618 0.0385 0.2712
vn -0.0000 -1.0000 -0.0000
vn -0.0000 1.0000 -0.0000
vt 0.184134 1.000000
vt -0.000000 0.476954
vt 0.000219 0.474819
vt 0.286627 0.000000
vt 0.286627 0.505252
vt 0.447923 0.997413
vt 0.286627 0.471686
vt 0.286871 0.471717
vt 0.573112 0.506563
vt 0.287138 0.469588
vt 0.286894 0.469557
vt 0.573112 -0.000000
vt 0.597522 0.979444
vt 0.573112 0.457950
vt 0.823781 -0.000000
vt 0.823781 0.515856
s 0
usemtl Material
f 9/15/7 10/16/7 12/17/7 11/18/7 16/19/7
f 11/20/8 12/21/8 15/22/8 13/23/8
f 13/23/9 15/22/9 14/24/9
f 13/23/10 14/24/10 10/25/10 9/26/10
f 11/27/11 13/28/11 9/29/11 16/30/11
f 15/22/12 12/21/12 10/25/12 14/24/12
